<svg xmlns="http://www.w3.org/2000/svg" class="bob" font-family="arial" font-size="14" viewBox="0 0 312 48">
<defs>
<marker id="triangle" markerHeight="8" markerWidth="8" orient="auto" refX="4" refY="3" viewBox="0 0 8 6">
<polygon class="fg_fill" points="0,0 0,6 8,3 0,0"/>
</marker>
<marker id="clear_triangle" markerHeight="10" markerWidth="10" orient="auto" refX="1" refY="7" viewBox="0 0 20 14">
<polygon class="bg_fill fg_stroke" points="2,2 2,12 18,7 2,2"/>
</marker>
<marker id="circle" markerHeight="5" markerWidth="5" orient="auto" refX="10" refY="10" viewBox="0 0 20 20">
<circle class="fg_fill" cx="10" cy="10" r="8"/>
</marker>
<marker id="square" markerHeight="5" markerWidth="5" orient="auto" refX="10" refY="10" viewBox="0 0 20 20">
<rect class="fg_fill" height="20" width="20" x="0" y="0"/>
</marker>
<marker id="open_circle" markerHeight="10" markerWidth="10" orient="auto" refX="10" refY="10" viewBox="0 0 20 20">
<circle class="bg_fill fg_stroke" cx="10" cy="10" r="4"/>
</marker>
<marker id="big_open_circle" markerHeight="20" markerWidth="20" orient="auto" refX="20" refY="20" viewBox="0 0 40 40">
<circle class="bg_fill fg_stroke" cx="20" cy="20" r="6"/>
</marker>
</defs>
<style type="text/css">
svg {
    font-family: 'Source Code Pro', monospace;
    letter-spacing: -0.038em;
}

.fg_fill {
    fill: black;
}


.bg_fill {
    fill: white;
}

.fg_stroke {
    stroke: black;
    stroke-width: 1;
}

.no_fill {
    fill: none;
}

.dashed {
    stroke-dasharray: 5;
}


text{
    fill: black;
}

line, path {
    stroke-linecap: round;
    stroke-linejoin: miter;
    stroke-opacity: 1;
    fill-opacity: 1;
}




tspan.head{
    fill: none;
    stroke: none;
}

</style>
<g>
<line class="fg_stroke" marker-end="url(#triangle)" x1="56" x2="76" y1="24" y2="24"/>
</g>
<g>
<line class="fg_stroke" x1="92" x2="92" y1="12" y2="36"/>
<path class="fg_stroke no_fill" d="M 92 36 A 4 4 0 0 0 96 40"/>
<path class="fg_stroke no_fill" d="M 96 8 A 4 4 0 0 0 92 12"/>
</g>
<g>
<line class="fg_stroke" x1="96" x2="176" y1="8" y2="8"/>
<path class="fg_stroke no_fill" d="M 180 12 A 4 4 0 0 0 176 8"/>
</g>
<g>
<line class="fg_stroke" x1="96" x2="176" y1="40" y2="40"/>
<path class="fg_stroke no_fill" d="M 176 40 A 4 4 0 0 0 180 36"/>
</g>
<g>
<line class="fg_stroke" x1="180" x2="180" y1="12" y2="36"/>
</g>
<g>
<line class="fg_stroke" marker-end="url(#triangle)" x1="192" x2="212" y1="24" y2="24"/>
</g>
<g>
<text class="fg_fill" x="9" y="28">
Write
</text>
</g>
<g>
<text class="fg_fill" x="105" y="28">
Document
</text>
</g>
<g>
<text class="fg_fill" x="225" y="28">
Web
</text>
</g>
<g>
<text class="fg_fill" x="257" y="28">
Browser
</text>
</g>
</svg>