<svg xmlns="http://www.w3.org/2000/svg" width="63.24" height="38.92" viewBox="0 0 63.24 38.92">
  <defs>
    <style>
      .a {
        fill: #32313d;
      }
    </style>
  </defs>
  <title>icon_markdown</title>
  <g>
    <path class="a" d="M58.68,38.92H4.56A4.57,4.57,0,0,1,0,34.36V4.56A4.57,4.57,0,0,1,4.56,0H58.68a4.57,4.57,0,0,1,4.56,4.56v29.8A4.57,4.57,0,0,1,58.68,38.92ZM4.56,3A1.52,1.52,0,0,0,3,4.56v29.8a1.53,1.53,0,0,0,1.52,1.52H58.68a1.53,1.53,0,0,0,1.52-1.52V4.56A1.52,1.52,0,0,0,58.68,3Z"/>
    <path class="a" d="M9.12,29.79V9.12H15.2l6.08,7.6,6.08-7.6h6.08V29.79H27.36V17.94l-6.08,7.6-6.08-7.6V29.79Zm38,0L38,19.76h6.08V9.12h6.08V19.76h6.09Z"/>
  </g>
</svg>
