<svg xmlns="http://www.w3.org/2000/svg" width="70" height="23.36" viewBox="0 0 70 23.36">
  <defs>
    <style>
      .a {
        fill: #32313d;
      }
    </style>
  </defs>
  <title>icon_katex</title>
  <g>
    <path class="a" d="M.83,20.36h.6c1.94,0,2-.27,2-1.18V5.94c0-.91,0-1.18-2-1.18H.83V4c.88.07,2.76.07,3.72.07s2.81,0,3.69-.07v.78h-.6c-1.94,0-2,.27-2,1.18v8l7.87-7.51A1.11,1.11,0,0,0,14,5.59c0-.23-.15-.81-1.15-.83V4c.85.07,2.28.07,3.19.07.68,0,1.48,0,2.13-.07v.78a5.26,5.26,0,0,0-3.56,1.51l-4.53,4.34,5.81,8.55c.75,1.1,1.28,1.2,2.64,1.2v.78c-1.06-.05-2-.07-2.89-.07s-2.72,0-3.6.07v-.78c.51,0,1.49,0,1.49-.75a1.74,1.74,0,0,0-.38-.85L8.57,12,5.65,14.79v4.39c0,.91,0,1.18,2,1.18h.6v.78c-.88-.07-2.76-.07-3.72-.07s-2.81,0-3.69.07Z" transform="translate(-0.83 -3.36)"/>
    <path class="a" d="M26.09,4.13H41.45l.47,5.65H41.3c-.36-4-.73-4.87-4.53-4.87a12,12,0,0,0-1.43,0c-.45.1-.45.45-.45,1V19.16c0,.85,0,1.2,2.64,1.2h1v.78c-1-.07-3.62-.07-4.77-.07s-3.72,0-4.75.07v-.78h1c2.64,0,2.64-.35,2.64-1.2V5.91c0-.57,0-.85-.53-1a10.49,10.49,0,0,0-1.35,0c-3.8,0-4.18.83-4.53,4.87h-.63Z" transform="translate(-0.83 -3.36)"/>
    <path class="a" d="M53.19,20.36c2.54,0,3.29-1.15,3.64-1.65L61,12.62l-4.62-7c-.48-.71-.95-.88-2.34-.88h-.47V4c.93.05,2.48.07,3.26.07,1,0,2.79,0,3.67-.07v.78c-1.08,0-1.63.45-1.63.75a1.08,1.08,0,0,0,.17.38l3.25,4.85L65.1,6.49c.18-.27.23-.32.23-.58,0-.57-.56-1.13-1.56-1.15V4c1,.07,2.21.07,3.22.07.62,0,1.81,0,2.79-.07v.78c-2.24,0-3.1.83-3.65,1.63l-3.44,5.05,5.3,8c.53.78,1.06.9,2.36.9h.48v.78c-1-.05-2.21-.07-3.27-.07s-2.79,0-3.66.07v-.78c1.08,0,1.63-.45,1.63-.75a1,1,0,0,0-.13-.28l-4-6-3.57,5.28c-.17.27-.25.37-.25.6,0,.45.43,1.13,1.59,1.15v.78c-.91-.07-2.29-.07-3.22-.07s-1.89.05-2.79.07Z" transform="translate(-0.83 -3.36)"/>
    <path class="a" d="M15.8,15.48a1.84,1.84,0,0,0,2-1.19L21.45,3.72c.08-.25.14-.36.42-.36s.32.13.41.36l3.82,11c.19.58.44.71,1.5.71h.32V16c-.74,0-1.56-.06-2.32-.06s-1.91,0-2.54.06v-.55c.47,0,1.46,0,1.46-.53a1.11,1.11,0,0,0-.05-.25L23.53,12H19.16l-.81,2.32a1.12,1.12,0,0,0,0,.27c0,.46.44.9,1.32.9V16c-.56,0-1.48-.06-2-.06s-1.4,0-1.81.06Zm7.54-4-2-5.75-2,5.75Z" transform="translate(-0.83 -3.36)"/>
    <path class="a" d="M39.46,26h.61c1.93,0,2-.28,2-1.18V11.6c0-.91,0-1.18-2-1.18h-.61V9.64H53.61l.71,5.65h-.63c-.4-3.49-1.08-4.87-4.93-4.87H45.52c-1.18,0-1.23.17-1.23,1v6h2.26c2.44,0,2.71-.78,2.71-2.94h.63v6.66h-.63c0-2.13-.27-2.94-2.71-2.94H44.29v6.71c0,.83.05,1,1.23,1h3.34c4.33,0,4.9-1.84,5.53-5.71H55L54,26.73H39.46Z" transform="translate(-0.83 -3.36)"/>
  </g>
</svg>
