<svg xmlns="http://www.w3.org/2000/svg" width="55.46" height="34.65" viewBox="0 0 55.46 34.65">
  <defs>
    <style>
      .a {
        fill: #32313d;
      }
    </style>
  </defs>
  <title>icon_hljs</title>
  <g>
    <path class="a" d="M2.52,30.52V3.41L7.9,2.54v9.09a9.75,9.75,0,0,1,1.39-.34,8.54,8.54,0,0,1,1.64-.17,10,10,0,0,1,3.84.64,5.93,5.93,0,0,1,2.45,1.78,7,7,0,0,1,1.3,2.74,15.4,15.4,0,0,1,.38,3.53V30.52H13.52V20.46a7.44,7.44,0,0,0-.66-3.67,2.67,2.67,0,0,0-2.48-1.09A7.19,7.19,0,0,0,9,15.83c-.42.09-.8.17-1.13.27V30.52Z" transform="translate(-2.52 -2.54)"/>
    <path class="a" d="M31,30.88a13.35,13.35,0,0,1-3.8-.5,5.62,5.62,0,0,1-2.31-1.32,4.35,4.35,0,0,1-1.15-2,10.82,10.82,0,0,1-.31-2.72V3.41l5.38-.87V23.2a7.23,7.23,0,0,0,.1,1.3,2.3,2.3,0,0,0,.42,1,2.14,2.14,0,0,0,.88.64,4.86,4.86,0,0,0,1.55.33Z" transform="translate(-2.52 -2.54)"/>
    <path class="a" d="M32.67,37.2c-.34,0-.84,0-1.5-.11a9.45,9.45,0,0,1-1.85-.4L30,32.33a6.53,6.53,0,0,0,1,.25,7.16,7.16,0,0,0,1.13.07,2,2,0,0,0,1.77-.76,3.9,3.9,0,0,0,.51-2.19V11.56h5.37V29.84q0,3.75-1.84,5.55A7.27,7.27,0,0,1,32.67,37.2ZM40.31,6.08a2.92,2.92,0,0,1-1,2.32,3.42,3.42,0,0,1-4.51,0,2.92,2.92,0,0,1-1-2.32,3,3,0,0,1,1-2.33,3.42,3.42,0,0,1,4.51,0A3,3,0,0,1,40.31,6.08Z" transform="translate(-2.52 -2.54)"/>
    <path class="a" d="M49.94,26.67A5.38,5.38,0,0,0,52,26.38a1.12,1.12,0,0,0,.62-1.12,1.39,1.39,0,0,0-.8-1.14A15.63,15.63,0,0,0,49.44,23a22.88,22.88,0,0,1-2.29-1,6.7,6.7,0,0,1-1.75-1.21,4.91,4.91,0,0,1-1.12-1.67,6.31,6.31,0,0,1-.4-2.35,5.06,5.06,0,0,1,2-4.22,8.63,8.63,0,0,1,5.44-1.55,17.81,17.81,0,0,1,3.32.31,14.76,14.76,0,0,1,2.52.67l-.93,4.18a19.87,19.87,0,0,0-2-.58,11,11,0,0,0-2.47-.25c-1.68,0-2.53.47-2.53,1.41a1.48,1.48,0,0,0,.11.57,1.31,1.31,0,0,0,.44.49,6.28,6.28,0,0,0,.88.51c.37.18.85.38,1.42.6A20.37,20.37,0,0,1,55,20.25a7,7,0,0,1,1.83,1.37,4.28,4.28,0,0,1,.93,1.64A7.24,7.24,0,0,1,58,25.34a4.8,4.8,0,0,1-2.11,4.25,10.48,10.48,0,0,1-6,1.44,16.88,16.88,0,0,1-6.53-1.15l.9-4.37a17.17,17.17,0,0,0,2.81.85A14,14,0,0,0,49.94,26.67Z" transform="translate(-2.52 -2.54)"/>
  </g>
</svg>
