<svg xmlns="http://www.w3.org/2000/svg" width="46.08" height="46.2" viewBox="0 0 46.08 46.2">
  <defs>
    <style>
      .a {
        fill: #32313d;
      }
    </style>
  </defs>
  <title>icon_markdeep</title>
  <path class="a" d="M0,46.2q3.85-5.54,2.53-16.62l0-.32a24.34,24.34,0,0,1-.14-6.7,6.37,6.37,0,0,1,1.77-3.33,6.54,6.54,0,0,1,4.21-2.15q2.19-.13,6,1.77a.49.49,0,0,0,.16.07c3.47,1.73,5.84,2,7.09.72a3.53,3.53,0,0,0,.77-3.48l-.12-.47a7.36,7.36,0,0,1,.18-4.45,17.88,17.88,0,0,1,3.93-5.08l1-1q4.91-4.9,8-5.13t7.05,3.68q3.88,3.89,3.64,7t-5.11,8l-1,1a17.58,17.58,0,0,1-5.07,3.89,7.48,7.48,0,0,1-4.46.22l-.31-.09a3.6,3.6,0,0,0-3.73.83q-1.78,1.79.81,7l.07.16q1.89,3.8,1.77,6A6.54,6.54,0,0,1,26.86,42a6.31,6.31,0,0,1-3.11,1.7,17.35,17.35,0,0,1-5.25.1c-.8-.07-1.92-.2-3.37-.38A41.62,41.62,0,0,0,9.58,43a18.83,18.83,0,0,0-5.19.92A16.61,16.61,0,0,0,0,46.2Zm2.76-3a14.55,14.55,0,0,0,3.76-2.59q2.85-2.35,6.29-5.79l.7-.7a5.86,5.86,0,0,0,3,.88A3.43,3.43,0,0,0,19,34,3.89,3.89,0,0,0,20.2,30.9a5,5,0,0,0-1.63-3.26,5.3,5.3,0,0,0-3.35-1.7,3.8,3.8,0,0,0-3.11,1.2,3.36,3.36,0,0,0-1,2.35A6.31,6.31,0,0,0,12,32.58l-.7.7q-3.69,3.69-6,6.38A14,14,0,0,0,2.76,43.22Z"/>
</svg>
