<svg xmlns="http://www.w3.org/2000/svg" width="55.18" height="61.21" viewBox="0 0 55.18 61.21">
  <defs>
    <style>
      .a, .b {
        fill: #32313d;
      }

      .a {
        opacity: 0.41;
      }
    </style>
  </defs>
  <title>icon_webpack</title>
  <g>
    <path class="a" d="M53.48,47.17l-24.8,14V50.29l15.46-8.51Zm1.7-1.53V16.29l-9.07,5.23V40.4ZM1.7,47.17l24.8,14V50.28L11,41.78ZM0,45.64V16.29l9.07,5.23V40.4ZM1.06,14.39,26.5,0V10.57l-16.3,9-.13.07-9-5.21Zm53.05,0L28.68,0V10.57l16.29,9,.13.07,9-5.22Z"/>
    <path class="b" d="M26.5,47.8,11.25,39.4V22.79l15.25,8.8Zm2.18,0,15.25-8.38V22.79l-15.25,8.8ZM12.28,20.87l15.31-8.42,15.3,8.42L27.59,29.7Z"/>
  </g>
</svg>
