<svg xmlns="http://www.w3.org/2000/svg" width="48.09" height="46.89" viewBox="0 0 48.09 46.89">
  <defs>
    <style>
      .a {
        fill: #32313d;
      }
    </style>
  </defs>
  <title>icon_offline</title>
  <path class="a" d="M37.41,29.43A14.23,14.23,0,0,0,38.47,24,14.44,14.44,0,0,0,24,9.62a14.22,14.22,0,0,0-5.38,1.06l3.89,3.89A10.58,10.58,0,0,1,24,14.43,9.61,9.61,0,0,1,33.66,24a11.12,11.12,0,0,1-.12,1.52ZM24,4.81A19.16,19.16,0,0,1,41,33l3.53,3.53A23.69,23.69,0,0,0,48.09,24,24,24,0,0,0,11.52,3.53L15,7.05A19.3,19.3,0,0,1,24,4.81ZM3.05,1.2,0,4.26,5.05,9.31a24,24,0,0,0,7,35.53l2.4-4.16A19.25,19.25,0,0,1,4.81,24,19,19,0,0,1,8.49,12.77l3.44,3.46a14.39,14.39,0,0,0,4.9,20.29l2.41-4.18a9.5,9.5,0,0,1-3.76-12.6l3.8,3.8,0,.5A4.82,4.82,0,0,0,24,28.85l.51,0,0,0L42.63,46.89l3.06-3.06L5.46,3.61Z"/>
</svg>
