<svg xmlns="http://www.w3.org/2000/svg" width="34.69" height="33.83" viewBox="0 0 34.69 33.83">
  <defs>
    <style>
      .a {
        fill: #fff;
        fill-rule: evenodd;
      }
    </style>
  </defs>
  <title>icon_github</title>
  <path class="a" d="M17.34,0a17.35,17.35,0,0,0-5.48,33.8c.87.15,1.19-.37,1.19-.82s0-1.78,0-3.23c-4.36.8-5.49-1.07-5.83-2a6.31,6.31,0,0,0-1.78-2.45c-.61-.33-1.47-1.13,0-1.15a3.5,3.5,0,0,1,2.67,1.78,3.71,3.71,0,0,0,5,1.43A3.62,3.62,0,0,1,14.22,25c-3.86-.44-7.89-1.93-7.89-8.57a6.75,6.75,0,0,1,1.78-4.66,6.25,6.25,0,0,1,.17-4.59S9.73,6.72,13.05,9a16.49,16.49,0,0,1,8.67,0C25,6.7,26.49,7.18,26.49,7.18a6.22,6.22,0,0,1,.18,4.59,6.76,6.76,0,0,1,1.78,4.66c0,6.66-4.06,8.13-7.92,8.57a4.1,4.1,0,0,1,1.17,3.21c0,2.32,0,4.18,0,4.77s.33,1,1.19.82A17.35,17.35,0,0,0,17.34,0Z"/>
</svg>
