<svg xmlns="http://www.w3.org/2000/svg" width="48.3" height="48.19" viewBox="0 0 48.3 48.19">
  <defs>
    <style>
      .a {
        fill: #32313d;
        fill-rule: evenodd;
      }
    </style>
  </defs>
  <title>icon_gear</title>
  <path class="a" d="M48.3,26.77V21.25L41.6,19l-1.55-3.76,3-6.34L39.19,5,33,8.18,29.19,6.62,26.81,0H21.29L19.11,6.69,15.28,8.25l-6.34-3L5,9.11l3.14,6.24L6.62,19.11,0,21.46v5.48l6.69,2.21,1.56,3.76-3,6.35,3.9,3.9L15.35,40l3.76,1.55,2.38,6.62H27l2.17-6.69L33,40l6.35,3,3.9-3.89-3.18-6.25,1.62-3.76L48.3,26.7ZM24.15,34.46A10.35,10.35,0,1,1,34.5,24.11,10.33,10.33,0,0,1,24.15,34.46Z"/>
</svg>
