<svg xmlns="http://www.w3.org/2000/svg" width="410.7" height="93.04" viewBox="0 0 410.7 93.04">
  <defs>
    <style>
      .a {
        fill: #111;
      }
    </style>
  </defs>
  <title>logo</title>
  <g>
    <path class="a" d="M26.76,37.32c-.27-1.1.14-1.64,1.5-1.64,11.35.54,25.84-3.42,33.5-3.42,5.88,0,9.43,2.73,11.21,7,.41,1.09.14,2.05-1.64,2.05-10.25-.13-19.83,2.6-28.16,3.83C38.38,52.9,32,64,25.25,76.28a67.57,67.57,0,0,1,9.17-1.09c6.83-.41,10.25,2.46,11.48,6.56.41,1.23.14,2-1.5,2-6.84-.14-17.37,1.92-25.16,3.83C14,97.75,9,108,5,117.16c-.55,1.37-1.37,1.37-2.32.55-2.6-2.19-4-6.56-1.1-15,4.1-12,18.46-38.83,30.49-58.38A10,10,0,0,1,26.76,37.32Z" transform="translate(0 -26.17)"/>
    <path class="a" d="M117.54,118.66c-10.53-.54-14.77-9.7-11.35-20.91,2.73-9.16,11.35-19.28,17.09-26a31.36,31.36,0,0,1-16.54,5.33c-3.83,6.15-9.44,10.8-17,11.08-2.73,11.62-11.21,25.7-21.32,29-4.93,1.64-12,1.37-17.37-5.88-5.88-8.06-3.83-20,2-30.76,5.2-9.43,13.81-17.09,22-17.77,4.11-.41,6.29,1,9.16,4.65,3.29,4.23,7.25,5,6.57,15,0,.69-.28,1.37-.28,2.19,3.83-.68,7.8-3.28,10.67-8.47-10.12-4.38,3.28-22.43,8.75-22.56,4.78-.14,2.32,9.84-.41,17.09,4.78-.69,9.57-3,14.76-6.57,1.78-1.23,3-1.64,4.11-.27,2.46,2.87,5.87,9.3,1.77,14-6.42,7.24-13,16.54-15.45,23.78-2.59,7.52-1,12.86,3.42,13.13,5.47.41,12.44-8.75,16.82-18.73.54-1.23,1.5-1.5,2.05-.27a11.92,11.92,0,0,1-.41,8.88C133,112.79,125.06,119.07,117.54,118.66ZM72,73A50.79,50.79,0,0,0,61.48,85.85c-5.88,10.39-7.79,22.83-4.24,26s12-1.78,18.87-14.22A57.24,57.24,0,0,0,80.9,86.4C75.56,83.39,72.15,77.92,72,73Zm10.8-.14c-.55-4.51-3.55-3.41-4.1.55a10.14,10.14,0,0,0,3.42,9A31.2,31.2,0,0,0,82.81,72.86Z" transform="translate(0 -26.17)"/>
    <path class="a" d="M152.26,114.43C163.61,115,173.59,104,179.47,95c.68-1.09,1.77-1.09,2.32.14s.14,4.92-2.32,8.48c-5.75,8.34-16.27,14.62-26.8,14.76-17.36.27-23.38-16.82-14.49-34.45S161,59.19,167.84,63.16a25.42,25.42,0,0,1,8.07,7.11c2.46,3.28,1.37,11.62-4.37,18.59-6.7,8.2-15.86,11.76-25.43,4C141.73,105.4,145,114,152.26,114.43ZM163.61,83c4.37-5.74,7.38-12.85,5.47-14.35-2.88-2.33-14.22,5.87-20.65,18.86-.41.82-.82,1.64-1.09,2.33C154,94.06,159.64,88.18,163.61,83Z" transform="translate(0 -26.17)"/>
    <path class="a" d="M220.07,62.47c4.65.14,7.11,7.39,5.33,13.4C232,69.45,241.12,63,245.63,63.16c4.93.13,6,8.2,3.29,15-2.46,6.15-9.16,15.17-12.58,22-3.83,7.79-1.92,14.08,3,13.94C245,114,251.1,105,256.44,95.42c.68-1.23,1.77-1.23,2.46-.27s.27,5.47-1.23,8.61c-3.83,7.8-12.58,14.63-20.51,14.63-11.9,0-16.27-9.43-11.21-20.64s17.22-26.66,15.17-27.35c-1.09-.41-5.74,1.1-14.63,10-11.34,11.35-18,24.48-23.78,37.33-.83,1.64-1.92,2.05-3.15.68-2.32-2-4.24-7.38-.27-17.23C203.8,89.82,218.56,71,215.83,70c-1.64-.68-8.34,3-17.09,12.58-8.07,8.75-14.63,21.47-20.1,34.32-.54,1.23-1.36,1.77-2.6.68-3-2.6-3.69-7.11-1.36-14.08,2.87-8.61,12.85-27.89,21.46-40.74,1-1.51,2.05-1.37,2.87,0,2.33,3.82,1.92,9.16-.13,14.63C204.89,70.4,215.15,62.34,220.07,62.47Z" transform="translate(0 -26.17)"/>
    <path class="a" d="M265.86,117.71c-12.57,0-15.31-17.37-4-33.77,10.94-15.72,21.74-22,28.71-22,5.33,0,8.07,4.23,8.07,9,2.05-3.42,3.82-6.15,4.78-7.52,1.09-1.64,2.19-2,3.28-.82,2.19,2.46,3.15,8.2.14,15-2.74,6.15-10,16.82-13,23.79-3.28,7.79-2.73,12.85,1.5,12.44,8.75-.82,21.06-17.64,27.49-37.73-11.08-4,1.91-22.56,7.38-23,4.24-.28,2.87,7.79,0,17.22,4.92-.54,10-2.87,15.17-6.42,1.92-1.37,2.87-1.64,4.11-.28,2.59,2.87,5.87,9.16,1.91,13.81-6.43,7.39-13.4,17-15.59,23.79-2.32,7.52-.82,12.85,3.42,13.13,5.74.41,12.58-8.62,17-18.87.55-1.09,1.51-1.37,2.06,0a12.1,12.1,0,0,1-.55,8.89c-3.56,8.2-11.62,14.21-19.14,13.94-10.39-.41-14.49-9.84-11.21-20.78,2.73-9,11.07-19.14,16.95-25.7-6,3.55-11.89,5.06-16.13,5.06-6.7,19.27-19,39.92-33.64,41-7.52.55-11.62-4.24-11.48-11.21C278.71,112.38,272.56,117.71,265.86,117.71Zm5.06-28.3c-7.38,11.75-8.88,23.65-3.55,23.79S280,105,286.92,92.69c8.47-14.9,9.7-23.52,5.74-23.79C288.42,68.63,278.44,77.38,270.92,89.41Z" transform="translate(0 -26.17)"/>
    <path class="a" d="M391.5,61c5.2-1.78,8.48.27,11.21,6,2.6,5.34,2.19,11.08-2.87,16a44.62,44.62,0,0,1-19,11.08c.54,11.21,4.37,19,9.57,19.55,5.6.54,13.12-10,17.22-18.46.82-1.64,2.05-1.78,2.74-.14s.41,4.92-1.64,8.34c-3.28,5.74-9.57,14.49-20.37,14.36-9.57-.14-17.64-7.93-17.37-26.39,0-2.46.28-2.87,2.87-3.69,17-5.61,26-17.5,23.93-21.06-1.5-2.46-7.52-.95-14.77,4.65-10.25,7.8-16.4,19.83-26.93,45-.41,1.1-1.5,1.37-2.46.28-2.05-2.33-2.73-6.7-.14-15C357.32,89,380,44,392.18,27.47c1.24-1.64,2.6-1.77,3.42-.13,2,4.1,1.78,9.57-4,19.55-3.28,5.6-8.62,15.17-12.31,21.87A33.26,33.26,0,0,1,391.5,61Z" transform="translate(0 -26.17)"/>
  </g>
</svg>
