<svg xmlns="http://www.w3.org/2000/svg" width="126.53" height="28.66" viewBox="0 0 126.53 28.66">
  <defs>
    <style>
      .a {
        fill: #ffdbbf;
      }
    </style>
  </defs>
  <title>logo_small</title>
  <g>
    <path class="a" d="M8.24,11.5c-.08-.34,0-.5.47-.5,3.49.16,8-1.06,10.31-1.06a3.45,3.45,0,0,1,3.46,2.15c.12.34,0,.63-.51.63-3.16,0-6.1.8-8.67,1.18-1.48,2.4-3.46,5.81-5.52,9.6a20.44,20.44,0,0,1,2.82-.33c2.11-.13,3.16.75,3.54,2,.12.38,0,.63-.46.63A35.43,35.43,0,0,0,5.93,27c-1.6,3.12-3.16,6.27-4.38,9.1-.17.42-.43.42-.72.16-.8-.67-1.22-2-.34-4.63,1.27-3.7,5.69-12,9.39-18A3.1,3.1,0,0,1,8.24,11.5Z" transform="translate(0 -8.07)"/>
    <path class="a" d="M36.21,36.56c-3.24-.17-4.55-3-3.5-6.44.84-2.83,3.5-5.94,5.27-8a9.7,9.7,0,0,1-5.1,1.65,6.48,6.48,0,0,1-5.22,3.41c-.84,3.58-3.45,7.91-6.57,8.93a4.59,4.59,0,0,1-5.35-1.81c-1.81-2.49-1.18-6.15.63-9.48,1.6-2.91,4.26-5.27,6.78-5.48,1.27-.12,1.94.3,2.82,1.44,1,1.3,2.24,1.55,2,4.63,0,.21-.09.42-.09.67a4.82,4.82,0,0,0,3.29-2.61c-3.12-1.35,1-6.91,2.69-6.95,1.48,0,.72,3-.12,5.27a10.94,10.94,0,0,0,4.54-2c.55-.37.93-.5,1.27-.08.75.89,1.81,2.87.54,4.3a24.91,24.91,0,0,0-4.75,7.32c-.8,2.32-.3,4,1.05,4.05,1.68.12,3.83-2.7,5.18-5.77.17-.38.46-.47.63-.09a3.66,3.66,0,0,1-.13,2.74C41,34.75,38.52,36.69,36.21,36.56Zm-14-14.07a15.82,15.82,0,0,0-3.24,4c-1.81,3.2-2.4,7-1.3,8s3.7-.54,5.81-4.38a17.51,17.51,0,0,0,1.47-3.45A5.25,5.25,0,0,1,22.18,22.49Zm3.33,0c-.17-1.39-1.09-1.05-1.26.17A3.13,3.13,0,0,0,25.3,25.4,9.49,9.49,0,0,0,25.51,22.45Z" transform="translate(0 -8.07)"/>
    <path class="a" d="M46.91,35.25c3.49.17,6.57-3.2,8.38-6,.21-.33.55-.33.71.05a3.4,3.4,0,0,1-.71,2.61A10.66,10.66,0,0,1,47,36.47c-5.34.09-7.2-5.18-4.46-10.61s7-7.62,9.14-6.4a7.75,7.75,0,0,1,2.48,2.19c.76,1,.42,3.58-1.34,5.73C50.78,29.9,48,31,45,28.6,43.67,32.47,44.68,35.13,46.91,35.25Zm3.49-9.68c1.35-1.77,2.28-4,1.69-4.43C51.2,20.43,47.71,23,45.73,27c-.13.25-.25.5-.34.71C47.46,29,49.18,27.17,50.4,25.57Z" transform="translate(0 -8.07)"/>
    <path class="a" d="M67.8,19.25c1.43,0,2.19,2.27,1.64,4.13,2-2,4.84-4,6.23-3.92s1.86,2.53,1,4.63c-.75,1.9-2.82,4.68-3.87,6.78-1.18,2.4-.59,4.34.93,4.3,1.72,0,3.62-2.82,5.26-5.77.21-.38.55-.38.76-.08A4.14,4.14,0,0,1,79.38,32c-1.18,2.4-3.88,4.5-6.32,4.5-3.66,0-5-2.9-3.45-6.35s5.31-8.22,4.67-8.43c-.33-.12-1.77.34-4.5,3.08-3.5,3.49-5.56,7.54-7.33,11.49-.25.51-.59.64-1,.21-.72-.63-1.31-2.27-.08-5.3,1.39-3.5,5.93-9.31,5.09-9.6-.5-.21-2.57.92-5.26,3.87C58.74,28.14,56.72,32.05,55,36c-.17.38-.42.55-.8.21-.93-.8-1.14-2.19-.42-4.34a69,69,0,0,1,6.61-12.55c.29-.46.63-.42.88,0a5.26,5.26,0,0,1,0,4.51C63.12,21.69,66.28,19.21,67.8,19.25Z" transform="translate(0 -8.07)"/>
    <path class="a" d="M81.91,36.26c-3.88,0-4.72-5.34-1.22-10.4,3.37-4.84,6.69-6.78,8.84-6.78A2.52,2.52,0,0,1,92,21.86c.63-1.05,1.18-1.89,1.47-2.32s.67-.63,1-.25c.67.76,1,2.53,0,4.63-.84,1.9-3.07,5.18-4,7.33-1,2.4-.84,4,.46,3.83,2.7-.25,6.49-5.43,8.47-11.62-3.41-1.22.59-6.95,2.27-7.07,1.31-.09.89,2.4,0,5.3a10.54,10.54,0,0,0,4.68-2c.59-.42.88-.5,1.26-.08.8.88,1.81,2.82.59,4.25-2,2.28-4.13,5.22-4.8,7.33-.72,2.32-.25,4,1,4,1.77.13,3.88-2.65,5.23-5.81.16-.34.46-.42.63,0a3.76,3.76,0,0,1-.17,2.74c-1.1,2.53-3.58,4.38-5.9,4.29-3.2-.12-4.46-3-3.45-6.4.84-2.78,3.41-5.89,5.22-7.91a10.29,10.29,0,0,1-5,1.55C99.05,29.65,95.26,36,90.75,36.35c-2.31.17-3.58-1.31-3.54-3.46C85.87,34.62,84,36.26,81.91,36.26Zm1.56-8.71c-2.28,3.62-2.74,7.28-1.1,7.32s3.88-2.52,6-6.31c2.61-4.59,3-7.25,1.77-7.33S85.78,23.84,83.47,27.55Z" transform="translate(0 -8.07)"/>
    <path class="a" d="M120.61,18.79c1.6-.55,2.62.08,3.46,1.85a4,4,0,0,1-.89,4.93A13.71,13.71,0,0,1,117.33,29c.17,3.45,1.35,5.85,3,6s4-3.07,5.3-5.68c.26-.51.63-.55.85-.05a3.2,3.2,0,0,1-.51,2.57c-1,1.77-3,4.47-6.27,4.42-3,0-5.44-2.44-5.35-8.12,0-.76.08-.89.88-1.14,5.22-1.73,8-5.39,7.37-6.49-.46-.76-2.31-.29-4.55,1.44-3.16,2.4-5,6.1-8.29,13.85-.13.34-.47.42-.76.08-.63-.71-.84-2.06,0-4.63,1.18-3.83,8.17-17.69,11.91-22.78.38-.51.8-.55,1.06,0,.63,1.26.54,3-1.22,6-1,1.73-2.66,4.67-3.79,6.74A10.14,10.14,0,0,1,120.61,18.79Z" transform="translate(0 -8.07)"/>
  </g>
</svg>
